<?xml version="1.0" encoding="utf-8"?>
<!-- Svg Vector Icons : http://www.onlinewebfonts.com/icon -->
<!DOCTYPE svg PUBLIC "-//W3C//DTD SVG 1.1//EN" "http://www.w3.org/Graphics/SVG/1.1/DTD/svg11.dtd">
<svg version="1.1" xmlns="http://www.w3.org/2000/svg" xmlns:xlink="http://www.w3.org/1999/xlink" x="0px" y="0px" viewBox="0 0 256 256" enable-background="new 0 0 256 256" xml:space="preserve">
<metadata> Svg Vector Icons : http://www.onlinewebfonts.com/icon </metadata>
<g><g><g><path fill="#FFFFFF" d="M223.5,14c-1.1,0.3-3,1.2-4.1,1.9c-1.2,0.7-20.4,19.5-42.7,41.9L136,98.5l-2.1-1.6c-2.7-2.1-5-2.8-8.6-2.8c-3.3,0-4.3,0.5-11.9,5c-15.4,9.1-36.6,14.1-55.5,13.2c-12.5-0.6-22.6-2.4-35.5-6.6c-11-3.5-11.5-3.2-12.2,7.4c-2.2,32.6,12.4,67.4,39.8,94.7c20.7,20.7,44.5,33.3,65.4,34.8c5.7,0.4,12.3-0.5,13.8-1.9c0.8-0.7,4.6-10.8,14.3-38.4c7.2-20.6,15.3-43.5,18-51c4.3-12,4.8-14,4.8-16.8c0-3.7-1.4-7-4.1-9.6l-1.7-1.6L201.7,82c44.2-44.2,43.1-43,44.1-48.9c1.1-7.5-2.8-15-9.5-18.3C233.1,13.3,226.8,12.8,223.5,14z M231.2,22c2.5,0.7,5.2,3.5,6,6.1c0.7,2.4,0.1,5.6-1.5,7.7c-0.5,0.7-19.1,19.2-41.2,41.2l-40.2,40l-6.2-6.2l-6.2-6.2l41.1-41c35.9-35.9,41.3-41.1,43-41.5C228.6,21.3,229,21.3,231.2,22z M128,103.2c2.1,1.4,28.8,28.1,29.6,29.6c0.4,0.8,0.6,1.9,0.4,2.6c-0.6,2.3-8.5,24.7-9,25.2c-0.2,0.3-9.5-8.7-23.9-23c-12.9-12.9-23.3-23.6-23.1-23.7c0.2-0.1,1.6-0.8,3.2-1.4c4.1-1.6,11.7-5.4,15.7-7.9C124.7,102.2,126.2,101.9,128,103.2z M34.9,117.9c17.7,3.7,36.5,3.8,52.7,0.1l4.8-1.1l26.6,26.6l26.6,26.6l-11.1,31.4c-6.1,17.2-11.4,31.6-11.6,32c-0.4,0.5-1.8,0.6-6.6,0.4c-3.3-0.1-6.9-0.5-7.9-0.8c-1.1-0.2-2.7-0.7-3.7-1l-1.8-0.5l1.4-1.8c6.8-8.6,15.9-26.7,16.1-31.8c0-2.4-1.6-4.2-4-4.2c-2.6,0-3.6,1-5,5.4c-2.6,7.9-10.1,21.3-15.5,27.6l-1.4,1.7l-2.6-1.1c-2.9-1.2-11.5-6.1-14.7-8.3l-2-1.4l5.3-5.1c8.3-8,16.7-19.1,16.7-22c0-1.7-2.5-3.9-4.4-3.9c-2.1,0-2.6,0.5-5.2,4.6c-3.1,4.7-8.9,11.5-13.7,16.1c-5.8,5.4-5.7,5.4-9.1,2.5c-1.5-1.3-5.5-4.9-8.7-8.1l-5.9-5.8l5.1-2.4c6.3-3,12.7-6.9,14.9-8.9c2.1-2,2.3-4.5,0.5-6.3c-1.9-1.9-3.6-1.6-8.8,1.7c-5.1,3.4-16,8.7-17.2,8.5c-1-0.2-6.3-7.6-10.2-14c-4.1-6.9-4.4-6.3,2.2-6.6c9.7-0.5,20.8-2.8,22.7-4.7c1.2-1.2,1.2-4.3,0-5.7c-1.1-1.4-3-1.4-10.3,0.2c-4.5,1-7.5,1.3-13.9,1.6l-8.2,0.3l-1.5-3.8c-1.8-4.7-3.7-10.9-4.2-13.3c-0.3-1.8-0.3-1.9,0.8-1.6c8.6,2.1,33.2,1.2,38.3-1.3c2.8-1.4,2.9-5.2,0.3-7.1c-1.2-0.9-1.3-0.9-6.2,0c-6.2,1.1-25.7,1.2-31.5,0.1c-3.5-0.7-3.5-0.7-3.9-2.3c-0.5-2.5-1-14.1-0.7-15.4l0.3-1.2l5.2,1.6C26.8,116,31.7,117.2,34.9,117.9z"/></g></g></g>
</svg>