<svg width="24" height="24" viewBox="0 0 24 24" fill="none" xmlns="http://www.w3.org/2000/svg">
<path d="M19.069 4.04729C18.9914 4.06846 18.8573 4.13198 18.7796 4.18138C18.695 4.23078 17.3399 5.55759 15.7661 7.13848L12.8937 10.0109L12.7455 9.89797C12.5549 9.74976 12.3926 9.70035 12.1385 9.70035C11.9056 9.70035 11.8351 9.73564 11.2987 10.0532C10.2118 10.6955 8.71563 11.0483 7.38176 10.9848C6.49957 10.9425 5.78677 10.8154 4.87635 10.519C4.10002 10.272 4.06473 10.2932 4.01533 11.0413C3.86006 13.342 4.89046 15.798 6.82422 17.7247C8.28513 19.1857 9.96481 20.0749 11.4398 20.1808C11.8421 20.209 12.3079 20.1455 12.4138 20.0467C12.4702 19.9973 12.7384 19.2845 13.423 17.3366C13.9311 15.8827 14.5028 14.2666 14.6933 13.7373C14.9968 12.8904 15.0321 12.7492 15.0321 12.5516C15.0321 12.2905 14.9333 12.0576 14.7428 11.8741L14.6228 11.7611L17.5305 8.8464C20.6499 5.72697 20.5723 5.81166 20.6428 5.39527C20.7205 4.86596 20.4452 4.33664 19.9724 4.10375C19.7465 3.99788 19.3019 3.9626 19.069 4.04729ZM19.6124 4.61189C19.7889 4.66129 19.9794 4.8589 20.0359 5.0424C20.0853 5.21178 20.0429 5.43762 19.93 5.58582C19.8947 5.63523 18.582 6.94087 17.0223 8.49352L14.1852 11.3165L13.7476 10.879L13.3101 10.4414L16.2107 7.54781C18.7444 5.01417 19.1255 4.64718 19.2454 4.61894C19.4289 4.56248 19.4572 4.56248 19.6124 4.61189ZM12.3291 10.3426C12.4773 10.4414 14.3616 12.3258 14.4181 12.4316C14.4463 12.4881 14.4605 12.5657 14.4463 12.6151C14.404 12.7774 13.8464 14.3583 13.8112 14.3936C13.797 14.4148 13.1407 13.7796 12.1244 12.7704C11.214 11.86 10.48 11.1048 10.4941 11.0977C10.5082 11.0907 10.607 11.0413 10.72 10.9989C11.0093 10.886 11.5457 10.6178 11.828 10.4414C12.0962 10.272 12.202 10.2508 12.3291 10.3426ZM5.75854 11.38C7.00772 11.6412 8.33453 11.6482 9.47784 11.3871L9.81661 11.3095L11.6939 13.1868L13.5712 15.0641L12.7878 17.2801C12.3573 18.494 11.9833 19.5103 11.9691 19.5385C11.9409 19.5738 11.8421 19.5809 11.5034 19.5668C11.2705 19.5597 11.0164 19.5315 10.9458 19.5103C10.8682 19.4962 10.7553 19.4609 10.6847 19.4397L10.5576 19.4044L10.6565 19.2774C11.1364 18.6705 11.7786 17.393 11.7927 17.0331C11.7927 16.8637 11.6798 16.7367 11.5104 16.7367C11.3269 16.7367 11.2563 16.8073 11.1575 17.1178C10.974 17.6753 10.4447 18.6211 10.0636 19.0657L9.96481 19.1857L9.78132 19.108C9.57665 19.0233 8.9697 18.6775 8.74386 18.5222L8.60271 18.4234L8.97676 18.0635C9.56254 17.4989 10.1554 16.7155 10.1554 16.5109C10.1554 16.3909 9.97893 16.2356 9.84484 16.2356C9.69663 16.2356 9.66134 16.2709 9.47784 16.5603C9.25906 16.892 8.84973 17.3719 8.51097 17.6965C8.10163 18.0776 8.10869 18.0776 7.86873 17.873C7.76287 17.7812 7.48057 17.5271 7.25473 17.3013L6.83834 16.892L7.19827 16.7226C7.64289 16.5109 8.09457 16.2356 8.24984 16.0945C8.39805 15.9533 8.41216 15.7769 8.28513 15.6498C8.15103 15.5157 8.03106 15.5369 7.66406 15.7698C7.30413 16.0098 6.53486 16.3838 6.45017 16.3697C6.3796 16.3556 6.00555 15.8333 5.73031 15.3817C5.44095 14.8947 5.41977 14.937 5.88557 14.9159C6.57015 14.8806 7.35353 14.7182 7.48763 14.5842C7.57232 14.4995 7.57232 14.2807 7.48763 14.1819C7.40999 14.0831 7.2759 14.0831 6.7607 14.196C6.44311 14.2666 6.23139 14.2877 5.77971 14.3089L5.20099 14.3301L5.09513 14.0619C4.96809 13.7302 4.834 13.2926 4.79871 13.1232C4.77754 12.9962 4.77754 12.9892 4.85517 13.0103C5.46212 13.1585 7.19827 13.095 7.5582 12.9186C7.75581 12.8198 7.76287 12.5516 7.57937 12.4175C7.49468 12.354 7.48763 12.354 7.14181 12.4175C6.70424 12.4951 5.32803 12.5022 4.91869 12.4246C4.67168 12.3752 4.67168 12.3752 4.64345 12.2622C4.60816 12.0858 4.57287 11.2671 4.59405 11.1754L4.61522 11.0907L4.98221 11.2036C5.18688 11.246 5.5327 11.3306 5.75854 11.38Z" fill="#D2E0ED"/>
</svg>
