<svg width="14" height="17" viewBox="0 0 14 17" fill="none" xmlns="http://www.w3.org/2000/svg">
<path d="M9.37586 0.947765V0.961322C9.31486 0.961322 9.04374 0.934209 8.36593 0.947765H2.31991C1.20831 0.947765 0.300049 1.84247 0.300049 2.94729V14.9444C0.300049 16.0493 1.20153 16.944 2.31991 16.944H11.3957C12.5073 16.944 13.4156 16.0493 13.4156 14.9444V4.94682L9.37586 0.947765ZM9.87744 12.9449H3.83141C3.55351 12.9449 3.32984 12.7212 3.32984 12.4433C3.32984 12.1654 3.55351 11.9418 3.83141 11.9418H9.88421C10.1621 11.9418 10.3858 12.1654 10.3858 12.4433C10.3858 12.7212 10.1621 12.9449 9.87744 12.9449ZM9.87744 9.94902H3.83141C3.55351 9.94902 3.32984 9.72534 3.32984 9.44744C3.32984 9.16954 3.55351 8.94587 3.83141 8.94587H9.88421C10.1621 8.94587 10.3858 9.16954 10.3858 9.44744C10.3858 9.72534 10.1621 9.94902 9.87744 9.94902ZM10.3858 4.94682C9.82999 4.94682 9.37586 4.49946 9.37586 3.95044C9.37586 3.95044 9.37586 3.14385 9.37586 1.95092L12.3989 4.94682H10.3858Z" fill="white"/>
</svg>
