<svg width="18" height="18" viewBox="0 0 18 18" fill="none" xmlns="http://www.w3.org/2000/svg">
<g filter="url(#filter0_d_563_6)">
<rect x="4.49994" y="4.5" width="9" height="9" rx="1.5" stroke="#D9D9D9" shape-rendering="crispEdges"/>
</g>
<line x1="6.50854" y1="2" x2="6.50854" y2="4.39316" stroke="#D9D9D9"/>
<line x1="11.2949" y1="2" x2="11.2949" y2="4.39316" stroke="#D9D9D9"/>
<line x1="11.2949" y1="13.6068" x2="11.2949" y2="16" stroke="#D9D9D9"/>
<line x1="8.90173" y1="13.6068" x2="8.90173" y2="16" stroke="#D9D9D9"/>
<line x1="4.39313" y1="6.50854" x2="1.99997" y2="6.50854" stroke="#D9D9D9"/>
<line x1="4.39313" y1="11.2949" x2="1.99997" y2="11.2949" stroke="#D9D9D9"/>
<line x1="4.39313" y1="8.90172" x2="1.99997" y2="8.90172" stroke="#D9D9D9"/>
<line x1="16" y1="6.50854" x2="13.6068" y2="6.50854" stroke="#D9D9D9"/>
<line x1="16" y1="11.2949" x2="13.6068" y2="11.2949" stroke="#D9D9D9"/>
<line x1="16" y1="8.90172" x2="13.6068" y2="8.90172" stroke="#D9D9D9"/>
<line x1="6.50854" y1="13.6068" x2="6.50854" y2="16" stroke="#D9D9D9"/>
<line x1="8.90173" y1="2" x2="8.90173" y2="4.39316" stroke="#D9D9D9"/>
<defs>
<filter id="filter0_d_563_6" x="-6.10352e-05" y="4" width="18" height="18" filterUnits="userSpaceOnUse" color-interpolation-filters="sRGB">
<feFlood flood-opacity="0" result="BackgroundImageFix"/>
<feColorMatrix in="SourceAlpha" type="matrix" values="0 0 0 0 0 0 0 0 0 0 0 0 0 0 0 0 0 0 127 0" result="hardAlpha"/>
<feOffset dy="4"/>
<feGaussianBlur stdDeviation="2"/>
<feComposite in2="hardAlpha" operator="out"/>
<feColorMatrix type="matrix" values="0 0 0 0 0 0 0 0 0 0 0 0 0 0 0 0 0 0 0.25 0"/>
<feBlend mode="normal" in2="BackgroundImageFix" result="effect1_dropShadow_563_6"/>
<feBlend mode="normal" in="SourceGraphic" in2="effect1_dropShadow_563_6" result="shape"/>
</filter>
</defs>
</svg>
