<svg width="24" height="24" viewBox="0 0 24 24" fill="none" xmlns="http://www.w3.org/2000/svg">
<path d="M7 5.93176H10.2725C10.9628 5.93176 11.5225 6.49141 11.5225 7.18176V11.7042H5.75V7.18176C5.75 6.49141 6.30965 5.93176 7 5.93176Z" stroke="white" stroke-width="1.5"/>
<path d="M12.768 7.20235L15.0584 4.93945C15.5495 4.45426 16.341 4.45904 16.8262 4.95013L19.0891 7.24054C19.5743 7.73164 19.5695 8.52308 19.0784 9.00827L16.788 11.2712C16.2969 11.7564 15.5054 11.7516 15.0202 11.2605L12.7573 8.97008C12.2721 8.47898 12.2769 7.68754 12.768 7.20235Z" stroke="white" stroke-width="1.5"/>
<path d="M11.5225 12.4773V18.2498H7C6.30964 18.2498 5.75 17.6901 5.75 16.9998V12.4773H11.5225Z" stroke="white" stroke-width="1.5"/>
<path d="M16.8179 12.4773C17.5083 12.4773 18.0679 13.0369 18.0679 13.7273V16.9998C18.0679 17.6901 17.5083 18.2498 16.8179 18.2498H12.2955V12.4773H16.8179Z" stroke="white" stroke-width="1.5"/>
</svg>
