<svg width="24" height="24" viewBox="0 0 24 24" fill="none" xmlns="http://www.w3.org/2000/svg">
<path d="M7.6 7H4.4C4.17909 7 4 7.17909 4 7.4V10.6C4 10.8209 4.17909 11 4.4 11H7.6C7.82091 11 8 10.8209 8 10.6V7.4C8 7.17909 7.82091 7 7.6 7Z" stroke="#69727B" stroke-width="1.2"/>
<path d="M13.6 7H10.4C10.1791 7 10 7.17909 10 7.4V10.6C10 10.8209 10.1791 11 10.4 11H13.6C13.8209 11 14 10.8209 14 10.6V7.4C14 7.17909 13.8209 7 13.6 7Z" stroke="#69727B" stroke-width="1.2"/>
<path d="M19.6 7H16.4C16.1791 7 16 7.17909 16 7.4V10.6C16 10.8209 16.1791 11 16.4 11H19.6C19.8209 11 20 10.8209 20 10.6V7.4C20 7.17909 19.8209 7 19.6 7Z" stroke="#69727B" stroke-width="1.2"/>
<path d="M7.6 13H4.4C4.17909 13 4 13.1791 4 13.4V16.6C4 16.8209 4.17909 17 4.4 17H7.6C7.82091 17 8 16.8209 8 16.6V13.4C8 13.1791 7.82091 13 7.6 13Z" stroke="#69727B" stroke-width="1.2"/>
<path d="M13.6 13H10.4C10.1791 13 10 13.1791 10 13.4V16.6C10 16.8209 10.1791 17 10.4 17H13.6C13.8209 17 14 16.8209 14 16.6V13.4C14 13.1791 13.8209 13 13.6 13Z" stroke="#69727B" stroke-width="1.2"/>
<path d="M19.6 13H16.4C16.1791 13 16 13.1791 16 13.4V16.6C16 16.8209 16.1791 17 16.4 17H19.6C19.8209 17 20 16.8209 20 16.6V13.4C20 13.1791 19.8209 13 19.6 13Z" stroke="#69727B" stroke-width="1.2"/>
</svg>
