<?xml version="1.0" encoding="utf-8" ?>
<svg baseProfile="full" height="20px" version="1.1" viewBox="0 0 403 383" width="20px" xmlns="http://www.w3.org/2000/svg" xmlns:ev="http://www.w3.org/2001/xml-events" xmlns:xlink="http://www.w3.org/1999/xlink"><defs /><path d="M 66,232 L 65,233 L 63,233 L 58,238 L 58,240 L 57,241 L 57,320 L 58,321 L 58,323 L 59,324 L 59,326 L 60,327 L 60,328 L 62,330 L 62,331 L 69,338 L 70,338 L 71,339 L 72,339 L 73,340 L 74,340 L 75,341 L 77,341 L 78,342 L 291,342 L 292,341 L 294,341 L 295,340 L 296,340 L 297,339 L 298,339 L 300,337 L 301,337 L 308,330 L 308,329 L 309,328 L 309,327 L 310,326 L 310,325 L 311,324 L 311,322 L 312,321 L 312,240 L 311,239 L 311,238 L 307,234 L 306,234 L 305,233 L 302,233 L 301,232 L 267,232 L 266,233 L 266,253 L 290,253 L 291,254 L 291,317 L 290,318 L 290,319 L 288,321 L 81,321 L 79,319 L 79,318 L 78,317 L 78,316 L 77,315 L 77,232 Z" fill="none" stroke="#DFE2E5" stroke-width="20" /><path d="M 134,44 L 133,45 L 130,45 L 129,46 L 128,46 L 125,49 L 125,50 L 124,51 L 124,100 L 123,101 L 99,101 L 98,102 L 97,102 L 96,103 L 95,103 L 94,104 L 94,105 L 93,106 L 93,107 L 92,108 L 92,109 L 91,110 L 91,167 L 92,168 L 92,169 L 93,170 L 93,171 L 96,174 L 97,174 L 98,175 L 105,175 L 106,174 L 109,174 L 110,173 L 114,173 L 115,172 L 121,172 L 122,173 L 124,173 L 129,178 L 129,179 L 130,180 L 130,182 L 131,183 L 131,192 L 130,193 L 130,195 L 129,196 L 129,197 L 125,201 L 123,201 L 122,202 L 113,202 L 112,201 L 108,201 L 107,200 L 104,200 L 103,199 L 101,199 L 100,200 L 97,200 L 96,201 L 95,201 L 92,204 L 92,206 L 91,207 L 91,245 L 92,246 L 92,249 L 93,250 L 93,252 L 94,253 L 94,254 L 97,257 L 97,258 L 98,258 L 102,262 L 103,262 L 104,263 L 105,263 L 106,264 L 107,264 L 108,265 L 109,265 L 110,266 L 115,266 L 116,267 L 141,267 L 142,268 L 141,269 L 142,270 L 142,277 L 143,278 L 143,280 L 144,281 L 144,283 L 145,284 L 145,285 L 147,287 L 147,288 L 150,291 L 150,292 L 156,298 L 157,298 L 159,300 L 160,300 L 161,301 L 162,301 L 163,302 L 165,302 L 166,303 L 170,303 L 171,304 L 187,304 L 188,303 L 192,303 L 193,302 L 194,302 L 195,301 L 196,301 L 197,300 L 198,300 L 199,299 L 200,299 L 203,296 L 204,296 L 207,293 L 207,292 L 210,289 L 210,288 L 211,287 L 211,286 L 212,285 L 212,284 L 213,283 L 213,281 L 214,280 L 214,278 L 215,277 L 215,268 L 216,267 L 230,267 L 231,266 L 234,266 L 235,265 L 236,265 L 237,264 L 238,264 L 239,263 L 240,263 L 244,259 L 245,259 L 247,257 L 247,256 L 249,254 L 249,253 L 250,252 L 250,251 L 251,250 L 251,249 L 252,248 L 252,246 L 253,245 L 253,191 L 254,190 L 258,190 L 259,189 L 262,189 L 263,188 L 265,188 L 266,187 L 267,187 L 271,183 L 272,183 L 274,181 L 274,180 L 276,178 L 276,177 L 277,176 L 277,175 L 278,174 L 278,173 L 279,172 L 279,168 L 280,167 L 280,111 L 279,110 L 279,108 L 278,107 L 278,106 L 274,102 L 273,102 L 272,101 L 269,101 L 268,100 L 247,100 L 246,99 L 246,52 L 245,51 L 245,50 L 244,49 L 244,48 L 243,47 L 242,47 L 241,46 L 240,46 L 239,45 L 233,45 L 232,46 L 231,46 L 230,47 L 229,47 L 228,48 L 228,49 L 227,50 L 227,51 L 226,52 L 226,99 L 225,100 L 196,100 L 195,99 L 195,51 L 194,50 L 194,49 L 191,46 L 190,46 L 189,45 L 182,45 L 181,46 L 180,46 L 179,47 L 178,47 L 177,48 L 177,49 L 176,50 L 176,51 L 175,52 L 175,100 L 174,101 L 146,101 L 145,100 L 145,52 L 144,51 L 144,50 L 140,46 L 139,46 L 138,45 L 136,45 L 135,44 Z" fill="none" stroke="#DFE2E5" stroke-width="20" /></svg>