<svg xmlns="http://www.w3.org/2000/svg" xmlns:xlink="http://www.w3.org/1999/xlink" width="20" height="20" viewBox="0 0 20 20" fill="none">
<circle cx="5.5" cy="14.5" r="3.5"   fill="#69727B" >
</circle>
<g >
<path     fill="#69727B"  d="M6.82 10.6L11.27 10.6L11.27 9.4L9.88 9.4L9.88 3.19L8.79 3.19C8.32 3.49 7.82 3.68 7.07 3.81L7.07 4.73L8.42 4.73L8.42 9.4L6.82 9.4L6.82 10.6ZM12.33 10.6L17.29 10.6L17.29 9.36L15.69 9.36C15.34 9.36 14.85 9.4 14.47 9.45C15.82 8.12 16.94 6.68 16.94 5.34C16.94 3.96 16.01 3.06 14.61 3.06C13.6 3.06 12.94 3.45 12.25 4.19L13.07 4.98C13.44 4.57 13.88 4.22 14.42 4.22C15.13 4.22 15.53 4.68 15.53 5.41C15.53 6.56 14.35 7.95 12.33 9.75L12.33 10.6Z">
</path>
</g>
</svg>
