<svg width="26" height="26" viewBox="0 0 26 26" fill="none" xmlns="http://www.w3.org/2000/svg"><path d="M12.7307 0.664335L0.976013 4.90657C0.682147 5.00639 0.486237 5.30584 0.486237 5.60529V20.5779C0.486237 20.9023 0.682147 21.1768 0.976013 21.2766L12.7307 25.5188C12.8041 25.5438 12.9021 25.5688 12.9755 25.5688C13.0245 25.5688 13.049 25.5688 13.098 25.5688H13.1225C13.147 25.5688 13.1715 25.5438 13.1959 25.5438L24.9506 21.3016C25.2445 21.2017 25.4404 20.9023 25.4404 20.6028V5.60529V5.58034C25.4404 5.55538 25.4404 5.50548 25.4404 5.48052V5.45557C25.3914 5.20602 25.22 4.98143 24.9751 4.90657L19.0978 2.78545H19.0733C18.9263 2.73554 18.7304 2.71059 18.559 2.78545L7.09822 6.90292C6.80436 7.00274 6.60845 7.30219 6.60845 7.60164V10.3466C6.60845 10.7708 6.9268 11.0952 7.34311 11.0952C7.75942 11.0952 8.07778 10.7708 8.07778 10.3466V8.12568L18.8039 4.25776L22.5262 5.60529L12.7307 9.14881C12.4368 9.24862 12.2409 9.52312 12.2409 9.84753C12.2409 9.84753 12.2409 9.84753 12.2409 9.87248V23.797L1.95557 20.0538V6.12933L13.2204 2.06178C13.6123 1.91205 13.8082 1.48783 13.6612 1.11351C13.5388 0.714244 13.1225 0.514609 12.7307 0.664335ZM13.7102 10.3716L23.9955 6.65337V20.0289L13.7102 23.7471V10.3716Z" fill="#FFFFFF"/></svg>