<?xml version="1.0" encoding="iso-8859-1"?>
<!-- Uploaded to: SVG Repo, www.svgrepo.com, Generator: SVG Repo Mixer Tools -->
<svg height="800px" width="800px" version="1.1" id="Layer_1" xmlns="http://www.w3.org/2000/svg" xmlns:xlink="http://www.w3.org/1999/xlink" 
	 viewBox="0 0 507.6 507.6" xml:space="preserve">
<path style="fill:#64B5F6;" d="M356.4,228.8c-5.2-4-10.8-8-16.4-12.4c-32.4-24-69.6-51.2-70.4-96c-0.4-0.4-0.4-1.2-0.4-1.6
	c0-6-6.8-15.2-15.2-15.2s-15.2,9.2-15.2,15.2c0,0.4,0,0.8,0,1.2c-0.4,38-28.8,60.4-56,82c-8,6.4-16,12.8-22.8,19.2
	c-38,29.6-60.8,75.6-60.8,123.2c0,41.2,16,80.4,45.2,109.6s68,45.6,109.6,45.6c41.2,0,80.4-16,109.6-45.2
	c29.2-29.2,45.2-68,45.2-109.6C408.8,300,389.2,256.4,356.4,228.8z"/>
<path style="fill:#42A5F5;" d="M254,55.2c13.2,0,23.6-10.8,23.6-23.6C277.6,18.4,266.8,8,254,8c-13.2,0-23.6,10.8-23.6,23.6
	C230.4,44.4,240.8,55.2,254,55.2z"/>
<path d="M254,507.6L254,507.6c-89.6,0-162.8-72.8-162.8-162.8c0-50.8,23.2-97.6,63.6-128.8c7.2-6.8,16-13.6,24-20
	c26.4-20.8,51.6-40.4,51.6-74.8c0-0.4,0-0.8,0-1.2c0.8-10,11.2-22,23.2-22c11.6,0,22,11.2,23.2,21.2c0.4,0.4,0.4,1.2,0.4,2
	c0,42,34,67.6,67.2,92c6,4.4,11.6,8.4,16.8,12.8l0,0c34.8,29.6,55.2,73.6,55.2,120c0,43.2-16.8,84-47.6,114.4
	C338.4,490.8,297.6,507.6,254,507.6z M238.8,122.4c-0.4,37.6-28,59.2-54.8,80c-8,6.4-16.4,12.8-24,20c-38.8,30-60.8,74.4-60.8,122.4
	c0,85.2,69.6,154.8,154.8,154.8c41.6,0,80.4-15.6,109.6-44.4c29.2-28.8,45.2-67.2,45.2-108.4c0-44.4-19.2-86-52-114
	c-5.2-4-10.8-8.4-16.4-12.4c-32.4-24-69.6-51.6-70.4-96.8c-0.4-0.4-0.4-1.2-0.4-1.6c0-6-6.8-15.2-15.2-15.2s-15.2,9.2-15.2,15.2
	C238.8,122,238.8,122.4,238.8,122.4z"/>
<path d="M254,63.2c-17.6,0-31.6-14.4-31.6-31.6S236.8,0,254,0c17.6,0,31.6,14.4,31.6,31.6S271.6,63.2,254,63.2z M254,7.6
	c-13.2,0-23.6,10.8-23.6,23.6c0,13.2,10.8,23.6,23.6,23.6c13.2,0,23.6-10.8,23.6-23.6S267.2,7.6,254,7.6z"/>
<path d="M254,487.6c-38,0-74-14.8-101.2-42c-26.8-26.8-42-62.8-42-101.2c0-44.8,20.4-86,56-113.2l1.2-0.8c4.8-4.4,9.6-8.4,14.8-12.4
	c2.4-2,4.8-3.6,7.2-5.6s4.8-3.6,7.2-5.6c21.6-17.2,44.4-35.2,51.2-66.4c0.4-2,2-3.2,4-3.2h1.2c0.4,0,0.4,0,0.8,0c0.4,0,0.4,0,0.8,0
	h1.6c2,0,3.6,1.2,4,3.2c4.4,22,14.8,34.4,29.6,49.6c1.6,1.6,1.6,4,0,5.6s-4,1.6-5.6,0c-13.6-14-24.4-26-29.6-45.6
	c-9.2,29.2-30.8,46.4-52,62.8c-2.4,2-4.8,3.6-6.8,5.6c-2.4,2-4.8,4-7.2,5.6c-5.2,4-10,8-14.4,12l-0.8,0.8c0,0,0,0-0.4,0.4l-0.8,0.4
	c-33.6,25.6-52.8,64.8-52.8,106.8c0,36,14,70,39.6,95.6s59.2,39.6,95.2,39.6s70-14,95.2-39.6c25.6-25.6,39.6-59.2,39.6-95.2
	c0-38.4-16.4-74.8-45.2-100.4c-4-3.2-8-6-12.4-9.6c-2-1.6-4.4-3.2-6.8-4.8c-1.6-1.2-2-4-0.8-5.6s4-2,5.6-0.8
	c2.4,1.6,4.4,3.2,6.8,4.8c4.4,3.2,8.8,6.4,12.8,9.6c30.4,27.2,48,66,48,106.8c0,38-14.8,74-42,100.8C328,472.8,292,487.6,254,487.6z
	"/>
</svg>